<?xml version="1.0" encoding="UTF-8"?>
<!DOCTYPE svg PUBLIC "-//W3C//DTD SVG 1.1//EN" "http://www.w3.org/Graphics/SVG/1.1/DTD/svg11.dtd">
<svg version="1.1" xmlns="http://www.w3.org/2000/svg" xmlns:xlink="http://www.w3.org/1999/xlink" x="0" y="0" width="1842.52" height="425.197" viewBox="0, 0, 1842.52, 425.197">
  <g id="レイヤー_1">
    <g>
      <path d="M-0,-0 L11.811,11.811 L11.811,59.055 L-0,70.866 L-0,-0 z" fill="#FF6E67"/>
      <path d="M11.811,11.811 L129.921,11.811 L129.921,59.055 L11.811,59.055 L11.811,11.811 z" fill="#FF4437"/>
      <path d="M141.732,-0 L129.921,11.811 L129.921,59.055 L141.732,70.866 L141.732,-0 z" fill="#D11D00"/>
      <path d="M-0,-0 L11.811,11.811 L129.921,11.811 L141.732,-0 L-0,-0 z" fill="#FF9592"/>
      <path d="M-0,70.866 L11.811,59.055 L129.921,59.055 L141.732,70.866 L-0,70.866 z" fill="#D11D00"/>
      <path d="M141.732,-0 L153.543,11.811 L153.543,59.055 L141.732,70.866 L141.732,-0 z" fill="#FFE436"/>
      <path d="M153.543,11.811 L271.654,11.811 L271.654,59.055 L153.543,59.055 L153.543,11.811 z" fill="#F2D300"/>
      <path d="M283.465,-0 L271.654,11.811 L271.654,59.055 L283.465,70.866 L283.465,-0 z" fill="#CFB400"/>
      <path d="M141.732,-0 L153.543,11.811 L271.654,11.811 L283.465,-0 L141.732,-0 z" fill="#FFE967"/>
      <path d="M141.732,70.866 L153.543,59.055 L271.654,59.055 L283.465,70.866 L141.732,70.866 z" fill="#AA9400"/>
      <path d="M283.465,-0 L295.276,11.811 L295.276,59.055 L283.465,70.866 L283.465,-0 z" fill="#74FA37"/>
      <path d="M295.276,11.811 L413.386,11.811 L413.386,59.055 L295.276,59.055 L295.276,11.811 z" fill="#4CEC00"/>
      <path d="M425.197,-0 L413.386,11.811 L413.386,59.055 L425.197,70.866 L425.197,-0 z" fill="#3FCA00"/>
      <path d="M283.465,-0 L295.276,11.811 L413.386,11.811 L425.197,-0 L283.465,-0 z" fill="#93FA67"/>
      <path d="M283.465,70.866 L295.276,59.055 L413.386,59.055 L425.197,70.866 L283.465,70.866 z" fill="#32A600"/>
      <path d="M425.197,-0 L437.008,11.811 L437.008,59.055 L425.197,70.866 L425.197,-0 z" fill="#21FDFF"/>
      <path d="M437.008,11.811 L555.118,11.811 L555.118,59.055 L437.008,59.055 L437.008,11.811 z" fill="#00EFF2"/>
      <path d="M566.929,-0 L555.118,11.811 L555.118,59.055 L566.929,70.866 L566.929,-0 z" fill="#00CDCF"/>
      <path d="M425.197,-0 L437.008,11.811 L555.118,11.811 L566.929,-0 L425.197,-0 z" fill="#60FDFF"/>
      <path d="M425.197,70.866 L437.008,59.055 L555.118,59.055 L566.929,70.866 L425.197,70.866 z" fill="#00A8AA"/>
      <path d="M566.929,-0 L578.74,11.811 L578.74,59.055 L566.929,70.866 L566.929,-0 z" fill="#3866FF"/>
      <path d="M578.74,11.811 L696.85,11.811 L696.85,59.055 L578.74,59.055 L578.74,11.811 z" fill="#0142F2"/>
      <path d="M708.661,-0 L696.85,11.811 L696.85,59.055 L708.661,70.866 L708.661,-0 z" fill="#0137CF"/>
      <path d="M566.929,-0 L578.74,11.811 L696.85,11.811 L708.661,-0 L566.929,-0 z" fill="#6887FF"/>
      <path d="M566.929,70.866 L578.74,59.055 L696.85,59.055 L708.661,70.866 L566.929,70.866 z" fill="#012BAA"/>
      <path d="M708.661,-0 L720.473,11.811 L720.473,59.055 L708.661,70.866 L708.661,-0 z" fill="#D051FF"/>
      <path d="M720.472,11.811 L838.583,11.811 L838.583,59.055 L720.472,59.055 L720.472,11.811 z" fill="#BB37F2"/>
      <path d="M850.394,-0 L838.583,11.811 L838.583,59.055 L850.394,70.866 L850.394,-0 z" fill="#9F2DCF"/>
      <path d="M708.661,-0 L720.472,11.811 L838.583,11.811 L850.394,-0 L708.661,-0 z" fill="#DA75FF"/>
      <path d="M708.661,70.866 L720.472,59.055 L838.583,59.055 L850.394,70.866 L708.661,70.866 z" fill="#8223AA"/>
      <path d="M141.732,70.866 L153.543,82.677 L153.543,129.921 L141.732,141.732 L141.732,70.866 z" fill="#FF6E67"/>
      <path d="M153.543,82.677 L271.654,82.677 L271.654,129.921 L153.543,129.921 L153.543,82.677 z" fill="#FF4437"/>
      <path d="M283.465,70.866 L271.654,82.677 L271.654,129.921 L283.465,141.732 L283.465,70.866 z" fill="#D11D00"/>
      <path d="M141.732,70.866 L153.543,82.677 L271.654,82.677 L283.465,70.866 L141.732,70.866 z" fill="#FF9592"/>
      <path d="M141.732,141.732 L153.543,129.921 L271.654,129.921 L283.465,141.732 L141.732,141.732 z" fill="#D11D00"/>
      <path d="M283.465,70.866 L295.276,82.677 L295.276,129.921 L283.465,141.732 L283.465,70.866 z" fill="#FFE436"/>
      <path d="M295.276,82.677 L413.386,82.677 L413.386,129.921 L295.276,129.921 L295.276,82.677 z" fill="#F2D300"/>
      <path d="M425.197,70.866 L413.386,82.677 L413.386,129.921 L425.197,141.732 L425.197,70.866 z" fill="#CFB400"/>
      <path d="M283.465,70.866 L295.276,82.677 L413.386,82.677 L425.197,70.866 L283.465,70.866 z" fill="#FFE967"/>
      <path d="M283.465,141.732 L295.276,129.921 L413.386,129.921 L425.197,141.732 L283.465,141.732 z" fill="#AA9400"/>
      <path d="M425.197,70.866 L437.008,82.677 L437.008,129.921 L425.197,141.732 L425.197,70.866 z" fill="#74FA37"/>
      <path d="M437.008,82.677 L555.118,82.677 L555.118,129.921 L437.008,129.921 L437.008,82.677 z" fill="#4CEC00"/>
      <path d="M566.929,70.866 L555.118,82.677 L555.118,129.921 L566.929,141.732 L566.929,70.866 z" fill="#3FCA00"/>
      <path d="M425.197,70.866 L437.008,82.677 L555.118,82.677 L566.929,70.866 L425.197,70.866 z" fill="#93FA67"/>
      <path d="M425.197,141.732 L437.008,129.921 L555.118,129.921 L566.929,141.732 L425.197,141.732 z" fill="#32A600"/>
      <path d="M566.929,70.866 L578.74,82.677 L578.74,129.921 L566.929,141.732 L566.929,70.866 z" fill="#21FDFF"/>
      <path d="M578.74,82.677 L696.85,82.677 L696.85,129.921 L578.74,129.921 L578.74,82.677 z" fill="#00EFF2"/>
      <path d="M708.661,70.866 L696.85,82.677 L696.85,129.921 L708.661,141.732 L708.661,70.866 z" fill="#00CDCF"/>
      <path d="M566.929,70.866 L578.74,82.677 L696.85,82.677 L708.661,70.866 L566.929,70.866 z" fill="#60FDFF"/>
      <path d="M566.929,141.732 L578.74,129.921 L696.85,129.921 L708.661,141.732 L566.929,141.732 z" fill="#00A8AA"/>
      <path d="M708.661,70.866 L720.473,82.677 L720.473,129.921 L708.661,141.732 L708.661,70.866 z" fill="#3866FF"/>
      <path d="M720.472,82.677 L838.583,82.677 L838.583,129.921 L720.472,129.921 L720.472,82.677 z" fill="#0142F2"/>
      <path d="M850.394,70.866 L838.583,82.677 L838.583,129.921 L850.394,141.732 L850.394,70.866 z" fill="#0137CF"/>
      <path d="M708.661,70.866 L720.472,82.677 L838.583,82.677 L850.394,70.866 L708.661,70.866 z" fill="#6887FF"/>
      <path d="M708.661,141.732 L720.472,129.921 L838.583,129.921 L850.394,141.732 L708.661,141.732 z" fill="#012BAA"/>
      <path d="M283.465,141.732 L295.276,153.543 L295.276,200.787 L283.465,212.598 L283.465,141.732 z" fill="#FF6E67"/>
      <path d="M295.276,153.543 L413.386,153.543 L413.386,200.787 L295.276,200.787 L295.276,153.543 z" fill="#FF4437"/>
      <path d="M425.197,141.732 L413.386,153.543 L413.386,200.787 L425.197,212.598 L425.197,141.732 z" fill="#D11D00"/>
      <path d="M283.465,141.732 L295.276,153.543 L413.386,153.543 L425.197,141.732 L283.465,141.732 z" fill="#FF9592"/>
      <path d="M283.465,212.598 L295.276,200.787 L413.386,200.787 L425.197,212.598 L283.465,212.598 z" fill="#D11D00"/>
      <path d="M425.197,141.732 L437.008,153.543 L437.008,200.787 L425.197,212.598 L425.197,141.732 z" fill="#FFE436"/>
      <path d="M437.008,153.543 L555.118,153.543 L555.118,200.787 L437.008,200.787 L437.008,153.543 z" fill="#F2D300"/>
      <path d="M566.929,141.732 L555.118,153.543 L555.118,200.787 L566.929,212.598 L566.929,141.732 z" fill="#CFB400"/>
      <path d="M425.197,141.732 L437.008,153.543 L555.118,153.543 L566.929,141.732 L425.197,141.732 z" fill="#FFE967"/>
      <path d="M425.197,212.598 L437.008,200.787 L555.118,200.787 L566.929,212.598 L425.197,212.598 z" fill="#AA9400"/>
      <path d="M566.929,141.732 L578.74,153.543 L578.74,200.787 L566.929,212.598 L566.929,141.732 z" fill="#74FA37"/>
      <path d="M578.74,153.543 L696.85,153.543 L696.85,200.787 L578.74,200.787 L578.74,153.543 z" fill="#4CEC00"/>
      <path d="M708.661,141.732 L696.85,153.543 L696.85,200.787 L708.661,212.598 L708.661,141.732 z" fill="#3FCA00"/>
      <path d="M566.929,141.732 L578.74,153.543 L696.85,153.543 L708.661,141.732 L566.929,141.732 z" fill="#93FA67"/>
      <path d="M566.929,212.598 L578.74,200.787 L696.85,200.787 L708.661,212.598 L566.929,212.598 z" fill="#32A600"/>
      <path d="M708.661,141.732 L720.473,153.543 L720.473,200.787 L708.661,212.598 L708.661,141.732 z" fill="#21FDFF"/>
      <path d="M720.472,153.543 L838.583,153.543 L838.583,200.787 L720.472,200.787 L720.472,153.543 z" fill="#00EFF2"/>
      <path d="M850.394,141.732 L838.583,153.543 L838.583,200.787 L850.394,212.598 L850.394,141.732 z" fill="#00CDCF"/>
      <path d="M708.661,141.732 L720.472,153.543 L838.583,153.543 L850.394,141.732 L708.661,141.732 z" fill="#60FDFF"/>
      <path d="M708.661,212.598 L720.472,200.787 L838.583,200.787 L850.394,212.598 L708.661,212.598 z" fill="#00A8AA"/>
      <path d="M-0,70.866 L11.811,82.677 L11.811,129.921 L-0,141.732 L-0,70.866 z" fill="#D051FF"/>
      <path d="M11.811,82.677 L129.921,82.677 L129.921,129.921 L11.811,129.921 L11.811,82.677 z" fill="#BB37F2"/>
      <path d="M141.732,70.866 L129.921,82.677 L129.921,129.921 L141.732,141.732 L141.732,70.866 z" fill="#9F2DCF"/>
      <path d="M-0,70.866 L11.811,82.677 L129.921,82.677 L141.732,70.866 L-0,70.866 z" fill="#DA75FF"/>
      <path d="M-0,141.732 L11.811,129.921 L129.921,129.921 L141.732,141.732 L-0,141.732 z" fill="#8223AA"/>
      <path d="M425.197,212.598 L437.008,224.409 L437.008,271.654 L425.197,283.465 L425.197,212.598 z" fill="#FF6E67"/>
      <path d="M437.008,224.409 L555.118,224.409 L555.118,271.654 L437.008,271.654 L437.008,224.409 z" fill="#FF4437"/>
      <path d="M566.929,212.598 L555.118,224.409 L555.118,271.654 L566.929,283.465 L566.929,212.598 z" fill="#D11D00"/>
      <path d="M425.197,212.598 L437.008,224.409 L555.118,224.409 L566.929,212.598 L425.197,212.598 z" fill="#FF9592"/>
      <path d="M425.197,283.465 L437.008,271.654 L555.118,271.654 L566.929,283.465 L425.197,283.465 z" fill="#D11D00"/>
      <path d="M566.929,212.598 L578.74,224.409 L578.74,271.654 L566.929,283.465 L566.929,212.598 z" fill="#FFE436"/>
      <path d="M578.74,224.409 L696.85,224.409 L696.85,271.654 L578.74,271.654 L578.74,224.409 z" fill="#F2D300"/>
      <path d="M708.661,212.598 L696.85,224.409 L696.85,271.654 L708.661,283.465 L708.661,212.598 z" fill="#CFB400"/>
      <path d="M566.929,212.598 L578.74,224.409 L696.85,224.409 L708.661,212.598 L566.929,212.598 z" fill="#FFE967"/>
      <path d="M566.929,283.465 L578.74,271.654 L696.85,271.654 L708.661,283.465 L566.929,283.465 z" fill="#AA9400"/>
      <path d="M708.661,212.598 L720.473,224.409 L720.473,271.654 L708.661,283.465 L708.661,212.598 z" fill="#74FA37"/>
      <path d="M720.472,224.409 L838.583,224.409 L838.583,271.654 L720.472,271.654 L720.472,224.409 z" fill="#4CEC00"/>
      <path d="M850.394,212.598 L838.583,224.409 L838.583,271.654 L850.394,283.465 L850.394,212.598 z" fill="#3FCA00"/>
      <path d="M708.661,212.598 L720.472,224.409 L838.583,224.409 L850.394,212.598 L708.661,212.598 z" fill="#93FA67"/>
      <path d="M708.661,283.465 L720.472,271.654 L838.583,271.654 L850.394,283.465 L708.661,283.465 z" fill="#32A600"/>
      <path d="M-0,141.732 L11.811,153.543 L11.811,200.787 L-0,212.598 L-0,141.732 z" fill="#3866FF"/>
      <path d="M11.811,153.543 L129.921,153.543 L129.921,200.787 L11.811,200.787 L11.811,153.543 z" fill="#0142F2"/>
      <path d="M141.732,141.732 L129.921,153.543 L129.921,200.787 L141.732,212.598 L141.732,141.732 z" fill="#0137CF"/>
      <path d="M-0,141.732 L11.811,153.543 L129.921,153.543 L141.732,141.732 L-0,141.732 z" fill="#6887FF"/>
      <path d="M-0,212.598 L11.811,200.787 L129.921,200.787 L141.732,212.598 L-0,212.598 z" fill="#012BAA"/>
      <path d="M141.732,141.732 L153.543,153.543 L153.543,200.787 L141.732,212.598 L141.732,141.732 z" fill="#D051FF"/>
      <path d="M153.543,153.543 L271.654,153.543 L271.654,200.787 L153.543,200.787 L153.543,153.543 z" fill="#BB37F2"/>
      <path d="M283.465,141.732 L271.654,153.543 L271.654,200.787 L283.465,212.598 L283.465,141.732 z" fill="#9F2DCF"/>
      <path d="M141.732,141.732 L153.543,153.543 L271.654,153.543 L283.465,141.732 L141.732,141.732 z" fill="#DA75FF"/>
      <path d="M141.732,212.598 L153.543,200.787 L271.654,200.787 L283.465,212.598 L141.732,212.598 z" fill="#8223AA"/>
      <path d="M-0,212.598 L11.811,224.409 L11.811,271.654 L-0,283.465 L-0,212.598 z" fill="#21FDFF"/>
      <path d="M11.811,224.409 L129.921,224.409 L129.921,271.654 L11.811,271.654 L11.811,224.409 z" fill="#00EFF2"/>
      <path d="M141.732,212.598 L129.921,224.409 L129.921,271.654 L141.732,283.465 L141.732,212.598 z" fill="#00CDCF"/>
      <path d="M-0,212.598 L11.811,224.409 L129.921,224.409 L141.732,212.598 L-0,212.598 z" fill="#60FDFF"/>
      <path d="M-0,283.465 L11.811,271.654 L129.921,271.654 L141.732,283.465 L-0,283.465 z" fill="#00A8AA"/>
      <path d="M141.732,212.598 L153.543,224.409 L153.543,271.654 L141.732,283.465 L141.732,212.598 z" fill="#3866FF"/>
      <path d="M153.543,224.409 L271.654,224.409 L271.654,271.654 L153.543,271.654 L153.543,224.409 z" fill="#0142F2"/>
      <path d="M283.465,212.598 L271.654,224.409 L271.654,271.654 L283.465,283.465 L283.465,212.598 z" fill="#0137CF"/>
      <path d="M141.732,212.598 L153.543,224.409 L271.654,224.409 L283.465,212.598 L141.732,212.598 z" fill="#6887FF"/>
      <path d="M141.732,283.465 L153.543,271.654 L271.654,271.654 L283.465,283.465 L141.732,283.465 z" fill="#012BAA"/>
      <path d="M283.465,212.598 L295.276,224.409 L295.276,271.654 L283.465,283.465 L283.465,212.598 z" fill="#D051FF"/>
      <path d="M295.276,224.409 L413.386,224.409 L413.386,271.654 L295.276,271.654 L295.276,224.409 z" fill="#BB37F2"/>
      <path d="M425.197,212.598 L413.386,224.409 L413.386,271.654 L425.197,283.465 L425.197,212.598 z" fill="#9F2DCF"/>
      <path d="M283.465,212.598 L295.276,224.409 L413.386,224.409 L425.197,212.598 L283.465,212.598 z" fill="#DA75FF"/>
      <path d="M283.465,283.465 L295.276,271.654 L413.386,271.654 L425.197,283.465 L283.465,283.465 z" fill="#8223AA"/>
      <path d="M850.394,-0 L862.205,11.811 L862.205,59.055 L850.394,70.866 L850.394,-0 z" fill="#FF6E67"/>
      <path d="M862.205,11.811 L980.315,11.811 L980.315,59.055 L862.205,59.055 L862.205,11.811 z" fill="#FF4437"/>
      <path d="M992.126,-0 L980.315,11.811 L980.315,59.055 L992.126,70.866 L992.126,-0 z" fill="#D11D00"/>
      <path d="M850.394,-0 L862.205,11.811 L980.315,11.811 L992.126,-0 L850.394,-0 z" fill="#FF9592"/>
      <path d="M850.394,70.866 L862.205,59.055 L980.315,59.055 L992.126,70.866 L850.394,70.866 z" fill="#D11D00"/>
      <path d="M992.126,-0 L1003.937,11.811 L1003.937,59.055 L992.126,70.866 L992.126,-0 z" fill="#FFE436"/>
      <path d="M1003.937,11.811 L1122.047,11.811 L1122.047,59.055 L1003.937,59.055 L1003.937,11.811 z" fill="#F2D300"/>
      <path d="M1133.858,-0 L1122.047,11.811 L1122.047,59.055 L1133.858,70.866 L1133.858,-0 z" fill="#CFB400"/>
      <path d="M992.126,-0 L1003.937,11.811 L1122.047,11.811 L1133.858,-0 L992.126,-0 z" fill="#FFE967"/>
      <path d="M992.126,70.866 L1003.937,59.055 L1122.047,59.055 L1133.858,70.866 L992.126,70.866 z" fill="#AA9400"/>
      <path d="M1133.858,-0 L1145.669,11.811 L1145.669,59.055 L1133.858,70.866 L1133.858,-0 z" fill="#74FA37"/>
      <path d="M1145.669,11.811 L1263.78,11.811 L1263.78,59.055 L1145.669,59.055 L1145.669,11.811 z" fill="#4CEC00"/>
      <path d="M1275.591,-0 L1263.78,11.811 L1263.78,59.055 L1275.591,70.866 L1275.591,-0 z" fill="#3FCA00"/>
      <path d="M1133.858,-0 L1145.669,11.811 L1263.78,11.811 L1275.591,-0 L1133.858,-0 z" fill="#93FA67"/>
      <path d="M1133.858,70.866 L1145.669,59.055 L1263.78,59.055 L1275.591,70.866 L1133.858,70.866 z" fill="#32A600"/>
      <path d="M1275.591,-0 L1287.402,11.811 L1287.402,59.055 L1275.591,70.866 L1275.591,-0 z" fill="#21FDFF"/>
      <path d="M1287.402,11.811 L1405.512,11.811 L1405.512,59.055 L1287.402,59.055 L1287.402,11.811 z" fill="#00EFF2"/>
      <path d="M1417.323,-0 L1405.512,11.811 L1405.512,59.055 L1417.323,70.866 L1417.323,-0 z" fill="#00CDCF"/>
      <path d="M1275.591,-0 L1287.402,11.811 L1405.512,11.811 L1417.323,-0 L1275.591,-0 z" fill="#60FDFF"/>
      <path d="M1275.591,70.866 L1287.402,59.055 L1405.512,59.055 L1417.323,70.866 L1275.591,70.866 z" fill="#00A8AA"/>
      <path d="M1417.323,-0 L1429.134,11.811 L1429.134,59.055 L1417.323,70.866 L1417.323,-0 z" fill="#3866FF"/>
      <path d="M1429.134,11.811 L1547.244,11.811 L1547.244,59.055 L1429.134,59.055 L1429.134,11.811 z" fill="#0142F2"/>
      <path d="M1559.055,-0 L1547.244,11.811 L1547.244,59.055 L1559.055,70.866 L1559.055,-0 z" fill="#0137CF"/>
      <path d="M1417.323,-0 L1429.134,11.811 L1547.244,11.811 L1559.055,-0 L1417.323,-0 z" fill="#6887FF"/>
      <path d="M1417.323,70.866 L1429.134,59.055 L1547.244,59.055 L1559.055,70.866 L1417.323,70.866 z" fill="#012BAA"/>
      <path d="M1559.055,-0 L1570.866,11.811 L1570.866,59.055 L1559.055,70.866 L1559.055,-0 z" fill="#D051FF"/>
      <path d="M1570.866,11.811 L1688.976,11.811 L1688.976,59.055 L1570.866,59.055 L1570.866,11.811 z" fill="#BB37F2"/>
      <path d="M1700.787,-0 L1688.976,11.811 L1688.976,59.055 L1700.787,70.866 L1700.787,-0 z" fill="#9F2DCF"/>
      <path d="M1559.055,-0 L1570.866,11.811 L1688.976,11.811 L1700.787,-0 L1559.055,-0 z" fill="#DA75FF"/>
      <path d="M1559.055,70.866 L1570.866,59.055 L1688.976,59.055 L1700.787,70.866 L1559.055,70.866 z" fill="#8223AA"/>
      <path d="M992.126,70.866 L1003.937,82.677 L1003.937,129.921 L992.126,141.732 L992.126,70.866 z" fill="#FF6E67"/>
      <path d="M1003.937,82.677 L1122.047,82.677 L1122.047,129.921 L1003.937,129.921 L1003.937,82.677 z" fill="#FF4437"/>
      <path d="M1133.858,70.866 L1122.047,82.677 L1122.047,129.921 L1133.858,141.732 L1133.858,70.866 z" fill="#D11D00"/>
      <path d="M992.126,70.866 L1003.937,82.677 L1122.047,82.677 L1133.858,70.866 L992.126,70.866 z" fill="#FF9592"/>
      <path d="M992.126,141.732 L1003.937,129.921 L1122.047,129.921 L1133.858,141.732 L992.126,141.732 z" fill="#D11D00"/>
      <path d="M1133.858,70.866 L1145.669,82.677 L1145.669,129.921 L1133.858,141.732 L1133.858,70.866 z" fill="#FFE436"/>
      <path d="M1145.669,82.677 L1263.78,82.677 L1263.78,129.921 L1145.669,129.921 L1145.669,82.677 z" fill="#F2D300"/>
      <path d="M1275.591,70.866 L1263.78,82.677 L1263.78,129.921 L1275.591,141.732 L1275.591,70.866 z" fill="#CFB400"/>
      <path d="M1133.858,70.866 L1145.669,82.677 L1263.78,82.677 L1275.591,70.866 L1133.858,70.866 z" fill="#FFE967"/>
      <path d="M1133.858,141.732 L1145.669,129.921 L1263.78,129.921 L1275.591,141.732 L1133.858,141.732 z" fill="#AA9400"/>
      <path d="M1275.591,70.866 L1287.402,82.677 L1287.402,129.921 L1275.591,141.732 L1275.591,70.866 z" fill="#74FA37"/>
      <path d="M1287.402,82.677 L1405.512,82.677 L1405.512,129.921 L1287.402,129.921 L1287.402,82.677 z" fill="#4CEC00"/>
      <path d="M1417.323,70.866 L1405.512,82.677 L1405.512,129.921 L1417.323,141.732 L1417.323,70.866 z" fill="#3FCA00"/>
      <path d="M1275.591,70.866 L1287.402,82.677 L1405.512,82.677 L1417.323,70.866 L1275.591,70.866 z" fill="#93FA67"/>
      <path d="M1275.591,141.732 L1287.402,129.921 L1405.512,129.921 L1417.323,141.732 L1275.591,141.732 z" fill="#32A600"/>
      <path d="M1417.323,70.866 L1429.134,82.677 L1429.134,129.921 L1417.323,141.732 L1417.323,70.866 z" fill="#21FDFF"/>
      <path d="M1429.134,82.677 L1547.244,82.677 L1547.244,129.921 L1429.134,129.921 L1429.134,82.677 z" fill="#00EFF2"/>
      <path d="M1559.055,70.866 L1547.244,82.677 L1547.244,129.921 L1559.055,141.732 L1559.055,70.866 z" fill="#00CDCF"/>
      <path d="M1417.323,70.866 L1429.134,82.677 L1547.244,82.677 L1559.055,70.866 L1417.323,70.866 z" fill="#60FDFF"/>
      <path d="M1417.323,141.732 L1429.134,129.921 L1547.244,129.921 L1559.055,141.732 L1417.323,141.732 z" fill="#00A8AA"/>
      <path d="M1559.055,70.866 L1570.866,82.677 L1570.866,129.921 L1559.055,141.732 L1559.055,70.866 z" fill="#3866FF"/>
      <path d="M1570.866,82.677 L1688.976,82.677 L1688.976,129.921 L1570.866,129.921 L1570.866,82.677 z" fill="#0142F2"/>
      <path d="M1700.787,70.866 L1688.976,82.677 L1688.976,129.921 L1700.787,141.732 L1700.787,70.866 z" fill="#0137CF"/>
      <path d="M1559.055,70.866 L1570.866,82.677 L1688.976,82.677 L1700.787,70.866 L1559.055,70.866 z" fill="#6887FF"/>
      <path d="M1559.055,141.732 L1570.866,129.921 L1688.976,129.921 L1700.787,141.732 L1559.055,141.732 z" fill="#012BAA"/>
      <path d="M1133.858,141.732 L1145.669,153.543 L1145.669,200.787 L1133.858,212.598 L1133.858,141.732 z" fill="#FF6E67"/>
      <path d="M1145.669,153.543 L1263.78,153.543 L1263.78,200.787 L1145.669,200.787 L1145.669,153.543 z" fill="#FF4437"/>
      <path d="M1275.591,141.732 L1263.78,153.543 L1263.78,200.787 L1275.591,212.598 L1275.591,141.732 z" fill="#D11D00"/>
      <path d="M1133.858,141.732 L1145.669,153.543 L1263.78,153.543 L1275.591,141.732 L1133.858,141.732 z" fill="#FF9592"/>
      <path d="M1133.858,212.598 L1145.669,200.787 L1263.78,200.787 L1275.591,212.598 L1133.858,212.598 z" fill="#D11D00"/>
      <path d="M1275.591,141.732 L1287.402,153.543 L1287.402,200.787 L1275.591,212.598 L1275.591,141.732 z" fill="#FFE436"/>
      <path d="M1287.402,153.543 L1405.512,153.543 L1405.512,200.787 L1287.402,200.787 L1287.402,153.543 z" fill="#F2D300"/>
      <path d="M1417.323,141.732 L1405.512,153.543 L1405.512,200.787 L1417.323,212.598 L1417.323,141.732 z" fill="#CFB400"/>
      <path d="M1275.591,141.732 L1287.402,153.543 L1405.512,153.543 L1417.323,141.732 L1275.591,141.732 z" fill="#FFE967"/>
      <path d="M1275.591,212.598 L1287.402,200.787 L1405.512,200.787 L1417.323,212.598 L1275.591,212.598 z" fill="#AA9400"/>
      <path d="M1417.323,141.732 L1429.134,153.543 L1429.134,200.787 L1417.323,212.598 L1417.323,141.732 z" fill="#74FA37"/>
      <path d="M1429.134,153.543 L1547.244,153.543 L1547.244,200.787 L1429.134,200.787 L1429.134,153.543 z" fill="#4CEC00"/>
      <path d="M1559.055,141.732 L1547.244,153.543 L1547.244,200.787 L1559.055,212.598 L1559.055,141.732 z" fill="#3FCA00"/>
      <path d="M1417.323,141.732 L1429.134,153.543 L1547.244,153.543 L1559.055,141.732 L1417.323,141.732 z" fill="#93FA67"/>
      <path d="M1417.323,212.598 L1429.134,200.787 L1547.244,200.787 L1559.055,212.598 L1417.323,212.598 z" fill="#32A600"/>
      <path d="M1559.055,141.732 L1570.866,153.543 L1570.866,200.787 L1559.055,212.598 L1559.055,141.732 z" fill="#21FDFF"/>
      <path d="M1570.866,153.543 L1688.976,153.543 L1688.976,200.787 L1570.866,200.787 L1570.866,153.543 z" fill="#00EFF2"/>
      <path d="M1700.787,141.732 L1688.976,153.543 L1688.976,200.787 L1700.787,212.598 L1700.787,141.732 z" fill="#00CDCF"/>
      <path d="M1559.055,141.732 L1570.866,153.543 L1688.976,153.543 L1700.787,141.732 L1559.055,141.732 z" fill="#60FDFF"/>
      <path d="M1559.055,212.598 L1570.866,200.787 L1688.976,200.787 L1700.787,212.598 L1559.055,212.598 z" fill="#00A8AA"/>
      <path d="M850.394,70.866 L862.205,82.677 L862.205,129.921 L850.394,141.732 L850.394,70.866 z" fill="#D051FF"/>
      <path d="M862.205,82.677 L980.315,82.677 L980.315,129.921 L862.205,129.921 L862.205,82.677 z" fill="#BB37F2"/>
      <path d="M992.126,70.866 L980.315,82.677 L980.315,129.921 L992.126,141.732 L992.126,70.866 z" fill="#9F2DCF"/>
      <path d="M850.394,70.866 L862.205,82.677 L980.315,82.677 L992.126,70.866 L850.394,70.866 z" fill="#DA75FF"/>
      <path d="M850.394,141.732 L862.205,129.921 L980.315,129.921 L992.126,141.732 L850.394,141.732 z" fill="#8223AA"/>
      <path d="M1275.591,212.598 L1287.402,224.409 L1287.402,271.654 L1275.591,283.465 L1275.591,212.598 z" fill="#FF6E67"/>
      <path d="M1287.402,224.409 L1405.512,224.409 L1405.512,271.654 L1287.402,271.654 L1287.402,224.409 z" fill="#FF4437"/>
      <path d="M1417.323,212.598 L1405.512,224.409 L1405.512,271.654 L1417.323,283.465 L1417.323,212.598 z" fill="#D11D00"/>
      <path d="M1275.591,212.598 L1287.402,224.409 L1405.512,224.409 L1417.323,212.598 L1275.591,212.598 z" fill="#FF9592"/>
      <path d="M1275.591,283.465 L1287.402,271.654 L1405.512,271.654 L1417.323,283.465 L1275.591,283.465 z" fill="#D11D00"/>
      <path d="M1417.323,212.598 L1429.134,224.409 L1429.134,271.654 L1417.323,283.465 L1417.323,212.598 z" fill="#FFE436"/>
      <path d="M1429.134,224.409 L1547.244,224.409 L1547.244,271.654 L1429.134,271.654 L1429.134,224.409 z" fill="#F2D300"/>
      <path d="M1559.055,212.598 L1547.244,224.409 L1547.244,271.654 L1559.055,283.465 L1559.055,212.598 z" fill="#CFB400"/>
      <path d="M1417.323,212.598 L1429.134,224.409 L1547.244,224.409 L1559.055,212.598 L1417.323,212.598 z" fill="#FFE967"/>
      <path d="M1417.323,283.465 L1429.134,271.654 L1547.244,271.654 L1559.055,283.465 L1417.323,283.465 z" fill="#AA9400"/>
      <path d="M1559.055,212.598 L1570.866,224.409 L1570.866,271.654 L1559.055,283.465 L1559.055,212.598 z" fill="#74FA37"/>
      <path d="M1570.866,224.409 L1688.976,224.409 L1688.976,271.654 L1570.866,271.654 L1570.866,224.409 z" fill="#4CEC00"/>
      <path d="M1700.787,212.598 L1688.976,224.409 L1688.976,271.654 L1700.787,283.465 L1700.787,212.598 z" fill="#3FCA00"/>
      <path d="M1559.055,212.598 L1570.866,224.409 L1688.976,224.409 L1700.787,212.598 L1559.055,212.598 z" fill="#93FA67"/>
      <path d="M1559.055,283.465 L1570.866,271.654 L1688.976,271.654 L1700.787,283.465 L1559.055,283.465 z" fill="#32A600"/>
      <path d="M850.394,141.732 L862.205,153.543 L862.205,200.787 L850.394,212.598 L850.394,141.732 z" fill="#3866FF"/>
      <path d="M862.205,153.543 L980.315,153.543 L980.315,200.787 L862.205,200.787 L862.205,153.543 z" fill="#0142F2"/>
      <path d="M992.126,141.732 L980.315,153.543 L980.315,200.787 L992.126,212.598 L992.126,141.732 z" fill="#0137CF"/>
      <path d="M850.394,141.732 L862.205,153.543 L980.315,153.543 L992.126,141.732 L850.394,141.732 z" fill="#6887FF"/>
      <path d="M850.394,212.598 L862.205,200.787 L980.315,200.787 L992.126,212.598 L850.394,212.598 z" fill="#012BAA"/>
      <path d="M992.126,141.732 L1003.937,153.543 L1003.937,200.787 L992.126,212.598 L992.126,141.732 z" fill="#D051FF"/>
      <path d="M1003.937,153.543 L1122.047,153.543 L1122.047,200.787 L1003.937,200.787 L1003.937,153.543 z" fill="#BB37F2"/>
      <path d="M1133.858,141.732 L1122.047,153.543 L1122.047,200.787 L1133.858,212.598 L1133.858,141.732 z" fill="#9F2DCF"/>
      <path d="M992.126,141.732 L1003.937,153.543 L1122.047,153.543 L1133.858,141.732 L992.126,141.732 z" fill="#DA75FF"/>
      <path d="M992.126,212.598 L1003.937,200.787 L1122.047,200.787 L1133.858,212.598 L992.126,212.598 z" fill="#8223AA"/>
      <path d="M850.394,212.598 L862.205,224.409 L862.205,271.654 L850.394,283.465 L850.394,212.598 z" fill="#21FDFF"/>
      <path d="M862.205,224.409 L980.315,224.409 L980.315,271.654 L862.205,271.654 L862.205,224.409 z" fill="#00EFF2"/>
      <path d="M992.126,212.598 L980.315,224.409 L980.315,271.654 L992.126,283.465 L992.126,212.598 z" fill="#00CDCF"/>
      <path d="M850.394,212.598 L862.205,224.409 L980.315,224.409 L992.126,212.598 L850.394,212.598 z" fill="#60FDFF"/>
      <path d="M850.394,283.465 L862.205,271.654 L980.315,271.654 L992.126,283.465 L850.394,283.465 z" fill="#00A8AA"/>
      <path d="M992.126,212.598 L1003.937,224.409 L1003.937,271.654 L992.126,283.465 L992.126,212.598 z" fill="#3866FF"/>
      <path d="M1003.937,224.409 L1122.047,224.409 L1122.047,271.654 L1003.937,271.654 L1003.937,224.409 z" fill="#0142F2"/>
      <path d="M1133.858,212.598 L1122.047,224.409 L1122.047,271.654 L1133.858,283.465 L1133.858,212.598 z" fill="#0137CF"/>
      <path d="M992.126,212.598 L1003.937,224.409 L1122.047,224.409 L1133.858,212.598 L992.126,212.598 z" fill="#6887FF"/>
      <path d="M992.126,283.465 L1003.937,271.654 L1122.047,271.654 L1133.858,283.465 L992.126,283.465 z" fill="#012BAA"/>
      <path d="M1133.858,212.598 L1145.669,224.409 L1145.669,271.654 L1133.858,283.465 L1133.858,212.598 z" fill="#D051FF"/>
      <path d="M1145.669,224.409 L1263.78,224.409 L1263.78,271.654 L1145.669,271.654 L1145.669,224.409 z" fill="#BB37F2"/>
      <path d="M1275.591,212.598 L1263.78,224.409 L1263.78,271.654 L1275.591,283.465 L1275.591,212.598 z" fill="#9F2DCF"/>
      <path d="M1133.858,212.598 L1145.669,224.409 L1263.78,224.409 L1275.591,212.598 L1133.858,212.598 z" fill="#DA75FF"/>
      <path d="M1133.858,283.465 L1145.669,271.654 L1263.78,271.654 L1275.591,283.465 L1133.858,283.465 z" fill="#8223AA"/>
      <path d="M1700.787,-0 L1712.599,11.811 L1712.599,59.055 L1700.787,70.866 L1700.787,-0 z" fill="#FF6E67"/>
      <path d="M1712.599,11.811 L1830.709,11.811 L1830.709,59.055 L1712.599,59.055 L1712.599,11.811 z" fill="#FF4437"/>
      <path d="M1842.52,-0 L1830.709,11.811 L1830.709,59.055 L1842.52,70.866 L1842.52,-0 z" fill="#D11D00"/>
      <path d="M1700.788,-0 L1712.599,11.811 L1830.709,11.811 L1842.52,-0 L1700.788,-0 z" fill="#FF9592"/>
      <path d="M1700.788,70.866 L1712.599,59.055 L1830.709,59.055 L1842.52,70.866 L1700.788,70.866 z" fill="#D11D00"/>
      <path d="M1700.787,70.866 L1712.599,82.677 L1712.599,129.921 L1700.787,141.732 L1700.787,70.866 z" fill="#D051FF"/>
      <path d="M1712.599,82.677 L1830.709,82.677 L1830.709,129.921 L1712.599,129.921 L1712.599,82.677 z" fill="#BB37F2"/>
      <path d="M1842.52,70.866 L1830.709,82.677 L1830.709,129.921 L1842.52,141.732 L1842.52,70.866 z" fill="#9F2DCF"/>
      <path d="M1700.788,70.866 L1712.599,82.677 L1830.709,82.677 L1842.52,70.866 L1700.788,70.866 z" fill="#DA75FF"/>
      <path d="M1700.788,141.732 L1712.599,129.921 L1830.709,129.921 L1842.52,141.732 L1700.788,141.732 z" fill="#8223AA"/>
      <path d="M1700.787,141.732 L1712.599,153.543 L1712.599,200.787 L1700.787,212.598 L1700.787,141.732 z" fill="#3866FF"/>
      <path d="M1712.599,153.543 L1830.709,153.543 L1830.709,200.787 L1712.599,200.787 L1712.599,153.543 z" fill="#0142F2"/>
      <path d="M1842.52,141.732 L1830.709,153.543 L1830.709,200.787 L1842.52,212.598 L1842.52,141.732 z" fill="#0137CF"/>
      <path d="M1700.788,141.732 L1712.599,153.543 L1830.709,153.543 L1842.52,141.732 L1700.788,141.732 z" fill="#6887FF"/>
      <path d="M1700.788,212.598 L1712.599,200.787 L1830.709,200.787 L1842.52,212.598 L1700.788,212.598 z" fill="#012BAA"/>
      <path d="M1700.787,212.598 L1712.599,224.409 L1712.599,271.654 L1700.787,283.465 L1700.787,212.598 z" fill="#21FDFF"/>
      <path d="M1712.599,224.409 L1830.709,224.409 L1830.709,271.654 L1712.599,271.654 L1712.599,224.409 z" fill="#00EFF2"/>
      <path d="M1842.52,212.598 L1830.709,224.409 L1830.709,271.654 L1842.52,283.465 L1842.52,212.598 z" fill="#00CDCF"/>
      <path d="M1700.788,212.598 L1712.599,224.409 L1830.709,224.409 L1842.52,212.598 L1700.788,212.598 z" fill="#60FDFF"/>
      <path d="M1700.788,283.465 L1712.599,271.654 L1830.709,271.654 L1842.52,283.465 L1700.788,283.465 z" fill="#00A8AA"/>
      <path d="M566.929,283.465 L578.74,295.276 L578.74,342.52 L566.929,354.331 L566.929,283.465 z" fill="#FF6E67"/>
      <path d="M578.74,295.276 L696.85,295.276 L696.85,342.52 L578.74,342.52 L578.74,295.276 z" fill="#FF4437"/>
      <path d="M708.661,283.465 L696.85,295.276 L696.85,342.52 L708.661,354.331 L708.661,283.465 z" fill="#D11D00"/>
      <path d="M566.929,283.465 L578.74,295.276 L696.85,295.276 L708.661,283.465 L566.929,283.465 z" fill="#FF9592"/>
      <path d="M566.929,354.331 L578.74,342.52 L696.85,342.52 L708.661,354.331 L566.929,354.331 z" fill="#D11D00"/>
      <path d="M708.661,283.465 L720.473,295.276 L720.473,342.52 L708.661,354.331 L708.661,283.465 z" fill="#FFE436"/>
      <path d="M720.472,295.276 L838.583,295.276 L838.583,342.52 L720.472,342.52 L720.472,295.276 z" fill="#F2D300"/>
      <path d="M850.394,283.465 L838.583,295.276 L838.583,342.52 L850.394,354.331 L850.394,283.465 z" fill="#CFB400"/>
      <path d="M708.661,283.465 L720.472,295.276 L838.583,295.276 L850.394,283.465 L708.661,283.465 z" fill="#FFE967"/>
      <path d="M708.661,354.331 L720.472,342.52 L838.583,342.52 L850.394,354.331 L708.661,354.331 z" fill="#AA9400"/>
      <path d="M850.394,283.465 L862.205,295.276 L862.205,342.52 L850.394,354.331 L850.394,283.465 z" fill="#74FA37"/>
      <path d="M862.205,295.276 L980.315,295.276 L980.315,342.52 L862.205,342.52 L862.205,295.276 z" fill="#4CEC00"/>
      <path d="M992.126,283.465 L980.315,295.276 L980.315,342.52 L992.126,354.331 L992.126,283.465 z" fill="#3FCA00"/>
      <path d="M850.394,283.465 L862.205,295.276 L980.315,295.276 L992.126,283.465 L850.394,283.465 z" fill="#93FA67"/>
      <path d="M850.394,354.331 L862.205,342.52 L980.315,342.52 L992.126,354.331 L850.394,354.331 z" fill="#32A600"/>
      <path d="M141.732,283.465 L153.543,295.276 L153.543,342.52 L141.732,354.331 L141.732,283.465 z" fill="#21FDFF"/>
      <path d="M153.543,295.276 L271.654,295.276 L271.654,342.52 L153.543,342.52 L153.543,295.276 z" fill="#00EFF2"/>
      <path d="M283.465,283.465 L271.654,295.276 L271.654,342.52 L283.465,354.331 L283.465,283.465 z" fill="#00CDCF"/>
      <path d="M141.732,283.465 L153.543,295.276 L271.654,295.276 L283.465,283.465 L141.732,283.465 z" fill="#60FDFF"/>
      <path d="M141.732,354.331 L153.543,342.52 L271.654,342.52 L283.465,354.331 L141.732,354.331 z" fill="#00A8AA"/>
      <path d="M283.465,283.465 L295.276,295.276 L295.276,342.52 L283.465,354.331 L283.465,283.465 z" fill="#3866FF"/>
      <path d="M295.276,295.276 L413.386,295.276 L413.386,342.52 L295.276,342.52 L295.276,295.276 z" fill="#0142F2"/>
      <path d="M425.197,283.465 L413.386,295.276 L413.386,342.52 L425.197,354.331 L425.197,283.465 z" fill="#0137CF"/>
      <path d="M283.465,283.465 L295.276,295.276 L413.386,295.276 L425.197,283.465 L283.465,283.465 z" fill="#6887FF"/>
      <path d="M283.465,354.331 L295.276,342.52 L413.386,342.52 L425.197,354.331 L283.465,354.331 z" fill="#012BAA"/>
      <path d="M425.197,283.465 L437.008,295.276 L437.008,342.52 L425.197,354.331 L425.197,283.465 z" fill="#D051FF"/>
      <path d="M437.008,295.276 L555.118,295.276 L555.118,342.52 L437.008,342.52 L437.008,295.276 z" fill="#BB37F2"/>
      <path d="M566.929,283.465 L555.118,295.276 L555.118,342.52 L566.929,354.331 L566.929,283.465 z" fill="#9F2DCF"/>
      <path d="M425.197,283.465 L437.008,295.276 L555.118,295.276 L566.929,283.465 L425.197,283.465 z" fill="#DA75FF"/>
      <path d="M425.197,354.331 L437.008,342.52 L555.118,342.52 L566.929,354.331 L425.197,354.331 z" fill="#8223AA"/>
      <path d="M1417.323,283.465 L1429.134,295.276 L1429.134,342.52 L1417.323,354.331 L1417.323,283.465 z" fill="#FF6E67"/>
      <path d="M1429.134,295.276 L1547.244,295.276 L1547.244,342.52 L1429.134,342.52 L1429.134,295.276 z" fill="#FF4437"/>
      <path d="M1559.055,283.465 L1547.244,295.276 L1547.244,342.52 L1559.055,354.331 L1559.055,283.465 z" fill="#D11D00"/>
      <path d="M1417.323,283.465 L1429.134,295.276 L1547.244,295.276 L1559.055,283.465 L1417.323,283.465 z" fill="#FF9592"/>
      <path d="M1417.323,354.331 L1429.134,342.52 L1547.244,342.52 L1559.055,354.331 L1417.323,354.331 z" fill="#D11D00"/>
      <path d="M1559.055,283.465 L1570.866,295.276 L1570.866,342.52 L1559.055,354.331 L1559.055,283.465 z" fill="#FFE436"/>
      <path d="M1570.866,295.276 L1688.976,295.276 L1688.976,342.52 L1570.866,342.52 L1570.866,295.276 z" fill="#F2D300"/>
      <path d="M1700.787,283.465 L1688.976,295.276 L1688.976,342.52 L1700.787,354.331 L1700.787,283.465 z" fill="#CFB400"/>
      <path d="M1559.055,283.465 L1570.866,295.276 L1688.976,295.276 L1700.787,283.465 L1559.055,283.465 z" fill="#FFE967"/>
      <path d="M1559.055,354.331 L1570.866,342.52 L1688.976,342.52 L1700.787,354.331 L1559.055,354.331 z" fill="#AA9400"/>
      <path d="M1700.787,283.465 L1712.599,295.276 L1712.599,342.52 L1700.787,354.331 L1700.787,283.465 z" fill="#74FA37"/>
      <path d="M1712.599,295.276 L1830.709,295.276 L1830.709,342.52 L1712.599,342.52 L1712.599,295.276 z" fill="#4CEC00"/>
      <path d="M1842.52,283.465 L1830.709,295.276 L1830.709,342.52 L1842.52,354.331 L1842.52,283.465 z" fill="#3FCA00"/>
      <path d="M1700.788,283.465 L1712.599,295.276 L1830.709,295.276 L1842.52,283.465 L1700.788,283.465 z" fill="#93FA67"/>
      <path d="M1700.788,354.331 L1712.599,342.52 L1830.709,342.52 L1842.52,354.331 L1700.788,354.331 z" fill="#32A600"/>
      <path d="M992.126,283.465 L1003.937,295.276 L1003.937,342.52 L992.126,354.331 L992.126,283.465 z" fill="#21FDFF"/>
      <path d="M1003.937,295.276 L1122.047,295.276 L1122.047,342.52 L1003.937,342.52 L1003.937,295.276 z" fill="#00EFF2"/>
      <path d="M1133.858,283.465 L1122.047,295.276 L1122.047,342.52 L1133.858,354.331 L1133.858,283.465 z" fill="#00CDCF"/>
      <path d="M992.126,283.465 L1003.937,295.276 L1122.047,295.276 L1133.858,283.465 L992.126,283.465 z" fill="#60FDFF"/>
      <path d="M992.126,354.331 L1003.937,342.52 L1122.047,342.52 L1133.858,354.331 L992.126,354.331 z" fill="#00A8AA"/>
      <path d="M1133.858,283.465 L1145.669,295.276 L1145.669,342.52 L1133.858,354.331 L1133.858,283.465 z" fill="#3866FF"/>
      <path d="M1145.669,295.276 L1263.78,295.276 L1263.78,342.52 L1145.669,342.52 L1145.669,295.276 z" fill="#0142F2"/>
      <path d="M1275.591,283.465 L1263.78,295.276 L1263.78,342.52 L1275.591,354.331 L1275.591,283.465 z" fill="#0137CF"/>
      <path d="M1133.858,283.465 L1145.669,295.276 L1263.78,295.276 L1275.591,283.465 L1133.858,283.465 z" fill="#6887FF"/>
      <path d="M1133.858,354.331 L1145.669,342.52 L1263.78,342.52 L1275.591,354.331 L1133.858,354.331 z" fill="#012BAA"/>
      <path d="M1275.591,283.465 L1287.402,295.276 L1287.402,342.52 L1275.591,354.331 L1275.591,283.465 z" fill="#D051FF"/>
      <path d="M1287.402,295.276 L1405.512,295.276 L1405.512,342.52 L1287.402,342.52 L1287.402,295.276 z" fill="#BB37F2"/>
      <path d="M1417.323,283.465 L1405.512,295.276 L1405.512,342.52 L1417.323,354.331 L1417.323,283.465 z" fill="#9F2DCF"/>
      <path d="M1275.591,283.465 L1287.402,295.276 L1405.512,295.276 L1417.323,283.465 L1275.591,283.465 z" fill="#DA75FF"/>
      <path d="M1275.591,354.331 L1287.402,342.52 L1405.512,342.52 L1417.323,354.331 L1275.591,354.331 z" fill="#8223AA"/>
      <path d="M708.661,354.331 L720.473,366.142 L720.473,413.386 L708.661,425.197 L708.661,354.331 z" fill="#FF6E67"/>
      <path d="M720.472,366.142 L838.583,366.142 L838.583,413.386 L720.472,413.386 L720.472,366.142 z" fill="#FF4437"/>
      <path d="M850.394,354.331 L838.583,366.142 L838.583,413.386 L850.394,425.197 L850.394,354.331 z" fill="#D11D00"/>
      <path d="M708.661,354.331 L720.472,366.142 L838.583,366.142 L850.394,354.331 L708.661,354.331 z" fill="#FF9592"/>
      <path d="M708.661,425.197 L720.472,413.386 L838.583,413.386 L850.394,425.197 L708.661,425.197 z" fill="#D11D00"/>
      <path d="M850.394,354.331 L862.205,366.142 L862.205,413.386 L850.394,425.197 L850.394,354.331 z" fill="#FFE436"/>
      <path d="M862.205,366.142 L980.315,366.142 L980.315,413.386 L862.205,413.386 L862.205,366.142 z" fill="#F2D300"/>
      <path d="M992.126,354.331 L980.315,366.142 L980.315,413.386 L992.126,425.197 L992.126,354.331 z" fill="#CFB400"/>
      <path d="M850.394,354.331 L862.205,366.142 L980.315,366.142 L992.126,354.331 L850.394,354.331 z" fill="#FFE967"/>
      <path d="M850.394,425.197 L862.205,413.386 L980.315,413.386 L992.126,425.197 L850.394,425.197 z" fill="#AA9400"/>
      <path d="M992.126,354.331 L1003.937,366.142 L1003.937,413.386 L992.126,425.197 L992.126,354.331 z" fill="#74FA37"/>
      <path d="M1003.937,366.142 L1122.047,366.142 L1122.047,413.386 L1003.937,413.386 L1003.937,366.142 z" fill="#4CEC00"/>
      <path d="M1133.858,354.331 L1122.047,366.142 L1122.047,413.386 L1133.858,425.197 L1133.858,354.331 z" fill="#3FCA00"/>
      <path d="M992.126,354.331 L1003.937,366.142 L1122.047,366.142 L1133.858,354.331 L992.126,354.331 z" fill="#93FA67"/>
      <path d="M992.126,425.197 L1003.937,413.386 L1122.047,413.386 L1133.858,425.197 L992.126,425.197 z" fill="#32A600"/>
      <path d="M283.465,354.331 L295.276,366.142 L295.276,413.386 L283.465,425.197 L283.465,354.331 z" fill="#21FDFF"/>
      <path d="M295.276,366.142 L413.386,366.142 L413.386,413.386 L295.276,413.386 L295.276,366.142 z" fill="#00EFF2"/>
      <path d="M425.197,354.331 L413.386,366.142 L413.386,413.386 L425.197,425.197 L425.197,354.331 z" fill="#00CDCF"/>
      <path d="M283.465,354.331 L295.276,366.142 L413.386,366.142 L425.197,354.331 L283.465,354.331 z" fill="#60FDFF"/>
      <path d="M283.465,425.197 L295.276,413.386 L413.386,413.386 L425.197,425.197 L283.465,425.197 z" fill="#00A8AA"/>
      <path d="M425.197,354.331 L437.008,366.142 L437.008,413.386 L425.197,425.197 L425.197,354.331 z" fill="#3866FF"/>
      <path d="M437.008,366.142 L555.118,366.142 L555.118,413.386 L437.008,413.386 L437.008,366.142 z" fill="#0142F2"/>
      <path d="M566.929,354.331 L555.118,366.142 L555.118,413.386 L566.929,425.197 L566.929,354.331 z" fill="#0137CF"/>
      <path d="M425.197,354.331 L437.008,366.142 L555.118,366.142 L566.929,354.331 L425.197,354.331 z" fill="#6887FF"/>
      <path d="M425.197,425.197 L437.008,413.386 L555.118,413.386 L566.929,425.197 L425.197,425.197 z" fill="#012BAA"/>
      <path d="M566.929,354.331 L578.74,366.142 L578.74,413.386 L566.929,425.197 L566.929,354.331 z" fill="#D051FF"/>
      <path d="M578.74,366.142 L696.85,366.142 L696.85,413.386 L578.74,413.386 L578.74,366.142 z" fill="#BB37F2"/>
      <path d="M708.661,354.331 L696.85,366.142 L696.85,413.386 L708.661,425.197 L708.661,354.331 z" fill="#9F2DCF"/>
      <path d="M566.929,354.331 L578.74,366.142 L696.85,366.142 L708.661,354.331 L566.929,354.331 z" fill="#DA75FF"/>
      <path d="M566.929,425.197 L578.74,413.386 L696.85,413.386 L708.661,425.197 L566.929,425.197 z" fill="#8223AA"/>
      <path d="M1559.055,354.331 L1570.866,366.142 L1570.866,413.386 L1559.055,425.197 L1559.055,354.331 z" fill="#FF6E67"/>
      <path d="M1570.866,366.142 L1688.976,366.142 L1688.976,413.386 L1570.866,413.386 L1570.866,366.142 z" fill="#FF4437"/>
      <path d="M1700.787,354.331 L1688.976,366.142 L1688.976,413.386 L1700.787,425.197 L1700.787,354.331 z" fill="#D11D00"/>
      <path d="M1559.055,354.331 L1570.866,366.142 L1688.976,366.142 L1700.787,354.331 L1559.055,354.331 z" fill="#FF9592"/>
      <path d="M1559.055,425.197 L1570.866,413.386 L1688.976,413.386 L1700.787,425.197 L1559.055,425.197 z" fill="#D11D00"/>
      <path d="M1700.787,354.331 L1712.599,366.142 L1712.599,413.386 L1700.787,425.197 L1700.787,354.331 z" fill="#FFE436"/>
      <path d="M1712.599,366.142 L1830.709,366.142 L1830.709,413.386 L1712.599,413.386 L1712.599,366.142 z" fill="#F2D300"/>
      <path d="M1842.52,354.331 L1830.709,366.142 L1830.709,413.386 L1842.52,425.197 L1842.52,354.331 z" fill="#CFB400"/>
      <path d="M1700.788,354.331 L1712.599,366.142 L1830.709,366.142 L1842.52,354.331 L1700.788,354.331 z" fill="#FFE967"/>
      <path d="M1700.788,425.197 L1712.599,413.386 L1830.709,413.386 L1842.52,425.197 L1700.788,425.197 z" fill="#AA9400"/>
      <path d="M1133.858,354.331 L1145.669,366.142 L1145.669,413.386 L1133.858,425.197 L1133.858,354.331 z" fill="#21FDFF"/>
      <path d="M1145.669,366.142 L1263.78,366.142 L1263.78,413.386 L1145.669,413.386 L1145.669,366.142 z" fill="#00EFF2"/>
      <path d="M1275.591,354.331 L1263.78,366.142 L1263.78,413.386 L1275.591,425.197 L1275.591,354.331 z" fill="#00CDCF"/>
      <path d="M1133.858,354.331 L1145.669,366.142 L1263.78,366.142 L1275.591,354.331 L1133.858,354.331 z" fill="#60FDFF"/>
      <path d="M1133.858,425.197 L1145.669,413.386 L1263.78,413.386 L1275.591,425.197 L1133.858,425.197 z" fill="#00A8AA"/>
      <path d="M1275.591,354.331 L1287.402,366.142 L1287.402,413.386 L1275.591,425.197 L1275.591,354.331 z" fill="#3866FF"/>
      <path d="M1287.402,366.142 L1405.512,366.142 L1405.512,413.386 L1287.402,413.386 L1287.402,366.142 z" fill="#0142F2"/>
      <path d="M1417.323,354.331 L1405.512,366.142 L1405.512,413.386 L1417.323,425.197 L1417.323,354.331 z" fill="#0137CF"/>
      <path d="M1275.591,354.331 L1287.402,366.142 L1405.512,366.142 L1417.323,354.331 L1275.591,354.331 z" fill="#6887FF"/>
      <path d="M1275.591,425.197 L1287.402,413.386 L1405.512,413.386 L1417.323,425.197 L1275.591,425.197 z" fill="#012BAA"/>
      <path d="M1417.323,354.331 L1429.134,366.142 L1429.134,413.386 L1417.323,425.197 L1417.323,354.331 z" fill="#D051FF"/>
      <path d="M1429.134,366.142 L1547.244,366.142 L1547.244,413.386 L1429.134,413.386 L1429.134,366.142 z" fill="#BB37F2"/>
      <path d="M1559.055,354.331 L1547.244,366.142 L1547.244,413.386 L1559.055,425.197 L1559.055,354.331 z" fill="#9F2DCF"/>
      <path d="M1417.323,354.331 L1429.134,366.142 L1547.244,366.142 L1559.055,354.331 L1417.323,354.331 z" fill="#DA75FF"/>
      <path d="M1417.323,425.197 L1429.134,413.386 L1547.244,413.386 L1559.055,425.197 L1417.323,425.197 z" fill="#8223AA"/>
      <path d="M-0,283.465 L11.811,295.276 L11.811,342.52 L-0,354.331 L-0,283.465 z" fill="#74FA37"/>
      <path d="M11.811,295.276 L129.921,295.276 L129.921,342.52 L11.811,342.52 L11.811,295.276 z" fill="#4CEC00"/>
      <path d="M141.732,283.465 L129.921,295.276 L129.921,342.52 L141.732,354.331 L141.732,283.465 z" fill="#3FCA00"/>
      <path d="M-0,283.465 L11.811,295.276 L129.921,295.276 L141.732,283.465 L-0,283.465 z" fill="#93FA67"/>
      <path d="M-0,354.331 L11.811,342.52 L129.921,342.52 L141.732,354.331 L-0,354.331 z" fill="#32A600"/>
      <path d="M-0,354.331 L11.811,366.142 L11.811,413.386 L-0,425.197 L-0,354.331 z" fill="#FFE436"/>
      <path d="M11.811,366.142 L129.921,366.142 L129.921,413.386 L11.811,413.386 L11.811,366.142 z" fill="#F2D300"/>
      <path d="M141.732,354.331 L129.921,366.142 L129.921,413.386 L141.732,425.197 L141.732,354.331 z" fill="#CFB400"/>
      <path d="M-0,354.331 L11.811,366.142 L129.921,366.142 L141.732,354.331 L-0,354.331 z" fill="#FFE967"/>
      <path d="M-0,425.197 L11.811,413.386 L129.921,413.386 L141.732,425.197 L-0,425.197 z" fill="#AA9400"/>
      <path d="M141.732,354.331 L153.543,366.142 L153.543,413.386 L141.732,425.197 L141.732,354.331 z" fill="#74FA37"/>
      <path d="M153.543,366.142 L271.654,366.142 L271.654,413.386 L153.543,413.386 L153.543,366.142 z" fill="#4CEC00"/>
      <path d="M283.465,354.331 L271.654,366.142 L271.654,413.386 L283.465,425.197 L283.465,354.331 z" fill="#3FCA00"/>
      <path d="M141.732,354.331 L153.543,366.142 L271.654,366.142 L283.465,354.331 L141.732,354.331 z" fill="#93FA67"/>
      <path d="M141.732,425.197 L153.543,413.386 L271.654,413.386 L283.465,425.197 L141.732,425.197 z" fill="#32A600"/>
    </g>
  </g>
</svg>
